PathFileType	4	(X/Y/Z)	C:\Users\WrightLab\Desktop\Jo\P1.2Trial10.trc
DataRate	CameraRate	NumFrames	NumMarkers	Units	OrigDataRate	OrigDataStartFrame	OrigNumFrames
100.00	100.00	       13	19	mm	100.00	405	       539
Frame#	Time	Headset_Front			Headset_Back			Headset_Left			Headset_Right			Left_Shoulder			Right_Shoulder			Sternum			C7			Left Elbow			Right Elbow			Left Wrist			Right Wrist			Left ASIS			Right ASIS			S2			Left Knee			Right Knee			Left Ankle			Right Ankle			
		X1	Y1	Z1	X2	Y2	Z2	X3	Y3	Z3	X4	Y4	Z4	X5	Y5	Z5	X6	Y6	Z6	X7	Y7	Z7	X8	Y8	Z8	X9	Y9	Z9	X10	Y10	Z10	X11	Y11	Z11	X12	Y12	Z12	X13	Y13	Z13	X14	Y14	Z14	X15	Y15	Z15	X16	Y16	Z16	X17	Y17	Z17	X18	Y18	Z18	X19	Y19	Z19	

405	4.040	-243.96814	1447.43909	1978.06006	-38.10952	1478.10315	1945.20740							96.12289	1266.29089	1978.67432	-245.97519	1247.61694	1724.25183	-13.16969	1310.38477	1757.36951	-145.79674	1200.50049	1962.56177	176.46231	1003.53424	2083.66699	-213.84581	1014.64618	1606.52612	87.09332	860.84528	2275.28467	-265.49677	778.26617	1517.23291	4.52509	899.84613	2029.80273	-237.84407	866.61548	1907.72656	25.45556	911.11725	1721.51965	125.62034	450.84851	1938.58887	-235.53795	479.55072	2008.02478	270.28351	184.15497	1696.84045	-264.44156	167.32365	2081.51343	
406	4.050	-251.69313	1450.96948	1984.45752	-45.49784	1479.66187	1951.99036							88.38086	1266.88806	1986.93457	-252.45639	1247.72900	1732.47168	-20.46274	1311.57117	1766.49731	-154.16908	1202.96191	1972.78418	166.23322	1002.81549	2091.16553	-219.06195	1014.23474	1614.15088	76.68356	859.51184	2280.23364	-268.75705	777.66626	1527.31299	-4.88871	901.00024	2038.21509	-246.74847	868.92419	1919.30457	17.81185	911.45734	1732.54443	118.05737	451.26508	1949.08118	-243.72650	479.48688	2015.79456	269.42996	189.78450	1706.23071	-267.45712	163.78770	2086.74634	
407	4.060	-259.32147	1454.74451	1990.86731	-52.14896	1481.36523	1960.57166							82.10559	1269.53723	1998.53052	-260.51770	1249.21533	1741.90259				-162.64441	1203.79138	1980.13171	156.29648	1001.45013	2098.25366	-224.16127	1013.89545	1627.84863	66.69952	857.68298	2286.05371	-273.17987	777.29755	1538.83179	-14.44441	904.05457	2049.68530	-255.63213	871.68927	1929.09729	9.68116	913.35199	1740.01978	109.35923	452.57162	1960.79724	-252.17616	481.32913	2022.87598	265.79758	194.66971	1717.24182	-271.12024	161.16222	2090.36523	
408	4.070	-267.10406	1458.34753	1996.80505	-60.11716	1482.46594	1967.85669	-34.67298	1313.97583	1785.53357				72.46472	1269.24695	2006.29712	-266.84152	1250.32703	1750.32947				-170.56215	1206.30969	1989.47974	146.16455	1000.91187	2104.36304	-229.96611	1014.68829	1636.58704	56.84998	856.05035	2290.34790	-277.72903	777.19434	1550.07104	-23.66965	905.51495	2058.29370	-263.51477	874.47003	1939.67285	1.48262	915.25586	1747.57361	99.69604	454.45544	1974.03748	-261.14233	482.75223	2029.59375	261.64929	200.26157	1729.86865	-274.63391	158.62921	2093.26758	
409	4.080	-274.65497	1461.73035	2002.57007	-67.36514	1484.70471	1976.55408	-41.08014	1315.65723	1794.63892				64.20100	1270.78235	2015.49377	-273.46280	1251.57043	1757.37219				-178.81021	1207.72009	1997.47876	135.68924	1000.17535	2110.10156	-236.05457	1015.69000	1645.67029	46.75214	853.61700	2294.80688	-282.79843	776.91748	1560.51184	-33.19210	907.30627	2067.43555				-6.19378	916.67249	1758.77502	90.88320	455.88507	1986.47534	-269.68872	484.37012	2036.44849	256.26773	205.82388	1743.90527	-277.32693	157.03067	2096.56616	
410	4.090	-282.21039	1465.53137	2009.04236	-74.64941	1486.79541	1983.28125	-47.92597	1317.25244	1801.76440				56.33307	1272.62415	2026.12781	-280.76129	1253.65442	1768.42004				-186.54202	1209.97815	2004.95923	125.21600	999.78973	2116.15894	-241.98975	1016.44995	1657.36865	37.51685	851.09155	2298.03784	-288.02563	777.08948	1573.29822	-42.02020	909.63361	2076.82031				-13.85121	918.20441	1768.48486	81.08489	458.97559	2000.38159	-278.25861	487.30176	2043.52258	249.91898	211.31439	1758.57312	-279.48584	156.08392	2100.19409	
411	4.100	-289.83658	1468.73279	2015.25952	-81.27185	1488.47351	1991.90112	-54.22211	1318.79822	1810.64661				48.50198	1274.16858	2035.26318	-287.09195	1255.10864	1775.19434				-193.40860	1211.92261	2012.86548	115.37828	999.84833	2122.14575	-248.51245	1016.97626	1666.39404	28.56335	849.14221	2301.99756	-294.33096	777.34155	1585.85486	-51.98779	911.99133	2086.12329				-21.43219	919.10693	1779.39844	73.56115	462.03986	2018.84119	-285.81781	488.69418	2049.13818	242.77063	218.32042	1773.27686	-281.16278	154.83553	2102.13379	
412	4.110	-297.11588	1471.86084	2020.86987	-88.72241	1490.52478	1998.87769	-59.53123	1320.41833	1819.70129				41.08698	1275.44299	2042.93774	-292.94135	1256.91516	1782.77283				-201.15092	1213.86414	2020.13562	104.99866	1000.17877	2128.12891	-255.34860	1017.44855	1675.60266	19.78821	847.12030	2305.91333	-302.89011	776.92090	1599.22034	-60.97070	913.66705	2094.39429				-28.41527	920.63800	1789.48914	66.14797	465.11407	2037.42310	-293.27875	491.62653	2055.49609	233.62923	224.83244	1788.57629	-282.16595	153.69287	2104.10669	
413	4.120	-303.79410	1474.35486	2025.41516	-95.50996	1492.55542	2006.78003	-65.43747	1321.71765	1828.09900				34.31399	1277.27759	2052.67627	-298.84406	1258.22571	1791.21643				-207.64140	1216.39661	2028.45850	95.01286	1000.26654	2133.40137	-262.58313	1018.62891	1685.09705	11.35621	845.16718	2309.36182	-311.64258	776.02789	1614.28296	-69.60970	915.72290	2103.44263				-35.67681	921.87714	1799.97021	57.46067	468.47470	2056.15308	-300.41830	492.30765	2059.75903	225.72925	232.00078	1804.08386	-283.45438	153.82150	2105.61060	
414	4.130	-310.95392	1476.63794	2031.43347	-101.71333	1494.49463	2013.55444	-70.80014	1323.27258	1836.16553				27.62908	1279.36475	2062.04688	-304.44223	1259.70105	1797.26062				-214.73979	1218.16614	2035.38757	85.78732	1000.73767	2139.43433				2.94337	843.61365	2312.09814	-321.19711	776.09924	1626.36365	-78.26360	917.15063	2111.27661				-42.34579	923.86218	1808.79565	46.32036	472.18109	2076.61475	-307.15628	493.68048	2063.80103	215.47369	238.72815	1820.11475	-283.98685	152.39873	2106.49658	
415	4.140	-317.95117	1478.92725	2037.25476	-108.93107	1496.48059	2021.21155	-76.18737	1324.56970	1844.33948				20.72273	1280.40955	2070.27490	-309.72501	1262.83020	1805.19592				-220.72717	1219.93469	2042.89819	77.65092	1000.91638	2144.99438				-5.95247	842.20612	2315.64551	-331.62598	775.41937	1641.14978	-86.08147	918.63458	2119.48901				-48.89480	924.40442	1819.21826	35.19122	474.55115	2095.38916	-313.02753	494.90591	2068.49341	205.42490	246.16660	1837.98938	-284.27261	150.92509	2106.66846	
416	4.150	-324.51257	1481.09375	2042.02222	-115.00842	1498.94470	2029.33398	-80.96775	1325.75574	1852.72266				14.22649	1282.04053	2078.01953							-226.91600	1222.92175	2050.15625	69.81580	1001.00037	2149.20679				-14.83860	840.67163	2318.19263	-343.11462	774.93878	1653.85999	-93.84684	919.99847	2127.40137				-54.98263	926.68018	1826.11536	23.60635	476.45926	2115.18677	-318.22174	494.64780	2071.77002	194.56905	253.21967	1855.90918	-284.59213	150.03522	2108.28027	
417	4.160	-330.57590	1482.86743	2046.03247	-121.51627	1500.23486	2035.59033	-85.83900	1327.08411	1860.15356				8.05774	1283.19006	2086.37036							-232.84734	1223.67236	2056.17456	61.79914	1002.18243	2155.90381				-24.08521	840.09406	2321.91504	-355.36798	774.64496	1667.62817	-100.92945	921.51172	2135.32739				-60.68603	927.31116	1836.06909	11.78676	477.82724	2135.37036	-323.85345	494.05972	2074.07202	183.57965	258.04153	1873.20459	-284.56561	149.28879	2109.41211	
